<svg xmlns="http://www.w3.org/2000/svg" width="129.611" height="129.611" viewBox="0 0 129.611 129.611">
  <g id="Instagram" transform="translate(1.5 1.5)">
    <path id="Path_32" data-name="Path 32" d="M34.653,3H97.958a31.653,31.653,0,0,1,31.653,31.653V97.958a31.653,31.653,0,0,1-31.653,31.653H34.653A31.653,31.653,0,0,1,3,97.958V34.653A31.653,31.653,0,0,1,34.653,3Z" transform="translate(-3 -3)" fill="none" stroke="#bec1fa" stroke-linecap="round" stroke-linejoin="round" stroke-width="3"/>
    <path id="Path_33" data-name="Path 33" d="M62.436,33.544A25.322,25.322,0,1,1,41.1,12.21,25.322,25.322,0,0,1,62.436,33.544Z" transform="translate(26.192 25.773)" fill="none" stroke="#bec1fa" stroke-linecap="round" stroke-linejoin="round" stroke-width="3"/>
    <path id="Path_34" data-name="Path 34" d="M26.25,9.75h0" transform="translate(71.874 18.737)" fill="none" stroke="#f0d9c0" stroke-linecap="round" stroke-linejoin="round" stroke-width="3"/>
  </g>
</svg>
