<?xml version="1.0" encoding="utf-8"?>
<!-- Generator: Adobe Illustrator 26.2.1, SVG Export Plug-In . SVG Version: 6.00 Build 0)  -->
<svg version="1.1" id="Layer_1" xmlns="http://www.w3.org/2000/svg" xmlns:xlink="http://www.w3.org/1999/xlink" x="0px" y="0px"
	 viewBox="0 0 1366 768" style="enable-background:new 0 0 1366 768;" xml:space="preserve">
<style type="text/css">
	.st0{opacity:0.3;}
	.st1{fill:#C6C9FB;}
	.st2{fill:#F2DEC8;}
</style>
<g>
	<g>
		<path d="M637.63,378.23c8.08,0.18,16.12-0.68,24.18-1.02c7.67-0.32,15.69-0.27,23.05,2.16c10.73,3.54,22.29,13.98,20.88,26.3
			c-1.32,11.56-12.98,16.73-23.04,18.7c-5.84,1.14-11.77,1.41-17.7,1.57c-8.39,0.23-16.79,0.38-25.18,0.48
			c-16.79,0.19-33.58,0.14-50.37-0.07c-16.79-0.2-33.58-0.56-50.37-0.97c-8.48-0.21-16.96-0.43-25.43-0.66
			c-7.63-0.2-15.4-0.09-22.95-1.4c-6.73-1.17-13.36-3.58-18.17-8.61c-4.04-4.21-6.95-10.28-5.77-16.22
			c2.23-11.19,15.02-14.48,24.77-15.44c6.92-0.68,13.92-0.5,20.86-0.58c8.37-0.1,16.74-0.21,25.11-0.31
			c4.14-0.05,8.29-0.1,12.43-0.15c1.67-0.02,2.06-2.5,0.4-2.95c-13.85-3.7-28.14-1.41-42.24-1.71
			c-11.82-0.25-25.23-2.47-33.24-12.06c-6.56-7.84-8.72-20.17-0.7-27.82c3.79-3.62,8.95-5.35,14-6.29
			c5.67-1.06,11.46-1.1,17.21-1.17c17.28-0.23,34.56-0.47,51.84-0.7c1.96-0.03,1.89-2.82,0-3c-8.7-0.84-17.39-1.68-26.09-2.52
			c-8.46-0.82-16.97-1.44-25.4-2.48c-3.37-0.42-6.9-1.14-9.7-3.18c-2.24-1.63-3.64-4.08-4.22-6.76c-1.23-5.63,1.02-11.72,5.17-15.59
			c5.02-4.69,12.06-6.64,18.74-7.36c8.21-0.89,16.49-0.09,24.7-0.97c13.58-1.46,25.95-8.52,33.89-19.67
			c8.39-11.77,10.53-27.53,6.02-41.22c-0.57-1.71-1.24-3.39-2-5.03c-0.8-1.75-3.39-0.23-2.59,1.51c6.17,13.44,4.95,29.83-3.27,42.14
			c-3.69,5.53-8.7,10.16-14.43,13.51c-6.3,3.69-13.24,5.53-20.51,6.01c-14.4,0.94-31.73-1.81-43.09,9.37
			c-4.18,4.12-6.49,10.28-5.83,16.14c0.33,2.92,1.33,5.69,3.18,7.99c2.08,2.57,5.09,4.17,8.23,5.06c3.56,1.01,7.32,1.24,11,1.6
			c4.39,0.42,8.78,0.85,13.17,1.27c8.86,0.86,17.72,1.71,26.58,2.57c2.15,0.21,4.31,0.42,6.46,0.62c0-1,0-2,0-3
			c-16.12,0.22-32.24,0.44-48.35,0.65c-6.35,0.09-12.72,0.04-19.02,0.93c-5.42,0.76-10.99,2.26-15.47,5.53
			c-4.41,3.22-7.48,7.92-8.24,13.36c-0.76,5.43,0.61,10.98,3.24,15.75c6.28,11.42,18.91,16.08,31.25,17.37
			c16.26,1.7,32.91-2.23,48.92,2.05c0.13-0.98,0.27-1.96,0.4-2.95c-17.27,0.21-34.56,0.2-51.82,0.65
			c-10.55,0.28-23.94,1.71-30.89,10.75c-8.34,10.85-1.16,25.36,9.55,31.38c6.69,3.76,14.47,4.95,22.03,5.43
			c8.34,0.53,16.73,0.56,25.08,0.77c17.62,0.46,35.24,0.89,52.87,1.18c17.62,0.29,35.24,0.43,52.87,0.34
			c8.81-0.05,17.62-0.16,26.43-0.35c7.13-0.15,14.31-0.13,21.4-0.96c10.76-1.26,23.5-4.57,28.99-14.94
			c2.87-5.43,3.15-11.78,0.88-17.48c-2.39-6-6.87-10.94-12.15-14.58c-13.2-9.1-29.93-7.2-45.07-6.29
			c-4.14,0.25-8.29,0.42-12.45,0.33C635.7,375.19,635.7,378.19,637.63,378.23L637.63,378.23z"/>
	</g>
</g>
<g>
	<g>
		<path d="M656.8,429.97c9.97-0.15,19.95-0.29,29.92-0.44c7.09-0.1,14.25-0.03,21.25,1.21c6.46,1.14,13.11,3.24,18.1,7.67
			c5.74,5.09,8.15,12.43,7.55,19.99c-0.67,8.46-4.85,16.12-10.05,22.65c-5.54,6.96-12.1,13.08-18.27,19.47
			c-13.03,13.5-25.63,27.43-37.76,41.75c-12.05,14.22-23.65,28.83-34.77,43.79c-1.39,1.87-2.77,3.75-4.15,5.63
			c-1.14,1.56,1.46,3.06,2.59,1.51c11.36-15.53,23.23-30.68,35.59-45.42c12.36-14.73,25.21-29.06,38.51-42.95
			c6.35-6.62,13.1-12.94,19-19.98c5.52-6.59,10.23-14.07,11.8-22.64c1.47-8,0.17-16.3-4.95-22.78c-4.2-5.31-10.44-8.52-16.86-10.33
			c-6.93-1.96-14.23-2.49-21.41-2.59c-9.54-0.13-19.09,0.21-28.62,0.35c-2.49,0.04-4.99,0.07-7.48,0.11
			C654.87,427,654.87,430,656.8,429.97L656.8,429.97z"/>
	</g>
</g>
<g>
	<g>
		<path d="M529.24,592.81c5.42,2.94,11.47,3.57,17.55,3.25c6.51-0.35,12.99-1.19,19.5-1.6c13.49-0.86,27.02-0.99,40.52-0.38
			c7.75,0.35,15.49,0.95,23.2,1.77c1.92,0.21,1.9-2.8,0-3c-13.28-1.42-26.64-2.15-40-2.15c-13.22,0-26.35,0.9-39.52,2.08
			c-6.72,0.61-13.63,0.74-19.73-2.57C529.06,589.3,527.54,591.89,529.24,592.81L529.24,592.81z"/>
	</g>
</g>
<g>
	<g>
		<path d="M503.55,424.45c-10.36-0.15-20.73-0.32-31.09-0.46c-7.22-0.1-14.49,0.13-21.6,1.48c-6.74,1.29-13.46,3.75-18.64,8.38
			c-5.82,5.21-8.73,12.77-8.6,20.52c0.3,18.55,14.76,31.82,26.66,44.25c13.38,13.99,26.31,28.42,38.75,43.26
			c12.45,14.86,24.42,30.13,35.86,45.79c1.42,1.95,2.84,3.9,4.24,5.86c1.12,1.55,3.72,0.06,2.59-1.51
			c-11.01-15.32-22.51-30.29-34.47-44.88c-11.98-14.61-24.43-28.84-37.32-42.65c-6.21-6.66-12.73-13.06-18.81-19.84
			c-5.7-6.37-10.94-13.48-13.25-21.82c-2.15-7.77-1.72-16.33,3.06-23.06c3.81-5.37,9.86-8.53,16.07-10.29
			c6.76-1.91,13.83-2.4,20.83-2.48c9.41-0.1,18.83,0.22,28.24,0.36c2.49,0.04,4.99,0.07,7.48,0.11
			C505.48,427.47,505.48,424.47,503.55,424.45L503.55,424.45z"/>
	</g>
</g>
<g>
	<g>
		<path d="M501.83,444.44c-0.43,21.62-0.86,43.25-1.3,64.87c-0.12,6.15-0.25,12.31-0.37,18.46c-0.04,1.93,2.96,1.93,3,0
			c0.43-21.62,0.86-43.25,1.3-64.87c0.12-6.15,0.25-12.31,0.37-18.46C504.86,442.51,501.86,442.51,501.83,444.44L501.83,444.44z"/>
	</g>
</g>
<g>
	<g>
		<path d="M536.5,467.91c0,25.32,0,50.63,0,75.95c0,7.16,0,14.32,0,21.49c0,1.93,3,1.93,3,0c0-25.32,0-50.63,0-75.95
			c0-7.16,0-14.32,0-21.49C539.5,465.98,536.5,465.98,536.5,467.91L536.5,467.91z"/>
	</g>
</g>
<g>
	<g>
		<path d="M576.25,444.4c-0.43,21.62-0.86,43.25-1.3,64.87c-0.12,6.15-0.25,12.31-0.37,18.46c-0.04,1.93,2.96,1.93,3,0
			c0.43-21.62,0.86-43.25,1.3-64.87c0.12-6.15,0.25-12.31,0.37-18.46C579.28,442.46,576.28,442.47,576.25,444.4L576.25,444.4z"/>
	</g>
</g>
<g>
	<g>
		<path d="M614.41,468.35c0,25.32,0,50.63,0,75.95c0,7.16,0,14.32,0,21.49c0,1.93,3,1.93,3,0c0-25.32,0-50.63,0-75.95
			c0-7.16,0-14.32,0-21.49C617.41,466.42,614.41,466.41,614.41,468.35L614.41,468.35z"/>
	</g>
</g>
<g>
	<g>
		<path d="M650.25,444.4c-0.43,21.62-0.86,43.25-1.3,64.87c-0.12,6.15-0.25,12.31-0.37,18.46c-0.04,1.93,2.96,1.93,3,0
			c0.43-21.62,0.86-43.25,1.3-64.87c0.12-6.15,0.25-12.31,0.37-18.46C653.28,442.46,650.28,442.47,650.25,444.4L650.25,444.4z"/>
	</g>
</g>
<g class="st0">
	<g>
		<g>
			<g>
				<g>
					<path class="st1" d="M579.11,219.21c-0.51,0.08-0.51,0.67,0.76,1.16c0.43-0.16,0.89-0.32,1.35-0.44
						C580.51,219.66,579.8,219.44,579.11,219.21z"/>
					<path class="st1" d="M584.85,226.1c0.65,0.43,1.29,0.99,1.9,1.24c0.59,0.26,1.09,0.25,1.23-0.42
						c-0.82-0.48-1.17-0.82-1.58-1.16c-0.43-0.32-0.89-0.65-1.81-0.94c-0.93-0.88-1.31-1.88-0.92-1.98
						c-0.27-0.06-0.63-0.44-1.04-0.81c-0.4-0.39-0.96-0.63-1.41-0.58c1.06,1.54,2.45,2.88,4.23,4.35
						C585.54,226.31,585.06,226.08,584.85,226.1z"/>
					<path class="st1" d="M511.97,292.95l0.79-0.04C512.54,292.89,512.26,292.91,511.97,292.95z"/>
					<path class="st1" d="M541.61,322.38c-0.57,0-0.81,0.09-0.84,0.18C541.3,322.51,541.73,322.47,541.61,322.38z"/>
					<path class="st1" d="M553.56,324.44c-0.22-0.08-0.4-0.14-0.6-0.22C553.17,324.37,553.4,324.48,553.56,324.44z"/>
					<path class="st1" d="M511.97,292.95c-0.68,0.03-1.36,0.07-2.05,0.12C509.85,293.42,510.99,293.08,511.97,292.95z"/>
					<path class="st1" d="M591.3,242.06c-0.04-0.44-0.12-0.81-0.26-1.15c0.06,0.36,0.08,0.71,0.1,1.08
						C591.2,242.01,591.24,242.03,591.3,242.06z"/>
					<path class="st1" d="M544.11,285.96l0.59-0.12c0.15-0.14,0.29-0.31,0.42-0.49L544.11,285.96z"/>
					<path class="st1" d="M567.38,279c-0.47,0.23-0.21,1.06-0.22,1.49c0.1-0.46,0.36-0.8,0.74-1.1
						C567.82,279.25,567.66,279.13,567.38,279z"/>
					<path class="st1" d="M587.41,247.52c0-0.24,0-0.47-0.01-0.71C587.42,247,587.4,247.31,587.41,247.52z"/>
					<path class="st1" d="M526.34,289.18c-0.07-0.11-0.17-0.21-0.28-0.25C526.08,289.03,526.19,289.11,526.34,289.18z"/>
					<path class="st1" d="M666.83,384.79c0.02-0.06,0-0.1,0.01-0.15C666.69,384.71,666.65,384.77,666.83,384.79z"/>
					<path class="st1" d="M637.91,381.38l0.4-0.09c0.02-0.16,0.05-0.32,0.03-0.48L637.91,381.38z"/>
					<path class="st1" d="M550.21,330.16c0.04,0.01,0.05,0.01,0.09,0.01C550.8,330.03,550.52,330.08,550.21,330.16z"/>
					<path class="st1" d="M533.1,383.38c2.44,0.68-3.91,1.08-0.24,1.81C532.51,384.87,536.13,383.78,533.1,383.38z"/>
					<path class="st1" d="M591.17,242.75c0,0.36,0,0.73-0.04,1.1C591.2,243.35,591.2,243.01,591.17,242.75z"/>
					<path class="st1" d="M532.86,385.19L532.86,385.19l0.38,0.07C533.08,385.23,532.99,385.22,532.86,385.19z"/>
					<path class="st1" d="M496.68,332.35c0.11,0.15,0.33,0.25,0.56,0.35C497.22,332.61,497.09,332.51,496.68,332.35z"/>
					<path class="st1" d="M536.69,332.3l-0.99-0.08C536.1,332.28,536.42,332.3,536.69,332.3z"/>
					<path class="st1" d="M475.21,336.01c-0.6,0.26-0.87,0.23-1.57,0.84c0.09-0.01,0.18-0.03,0.29-0.07
						C474.13,336.49,474.49,336.23,475.21,336.01z"/>
					<path class="st1" d="M470.61,358.32c-0.01-0.14-0.04-0.31-0.06-0.47c-0.14-0.19-0.25-0.45-0.37-0.67
						C470.29,357.57,470.44,357.95,470.61,358.32z"/>
					<path class="st1" d="M688.35,415.71c0.46,0.01,0.82,0.11,1.12,0.23C688.93,415.56,691.14,413.99,688.35,415.71z"/>
					<path class="st1" d="M590.82,242.07c0.21,0.14,0.31,0.33,0.35,0.69c-0.01-0.26-0.02-0.52-0.03-0.76
						C591.02,241.92,590.9,241.91,590.82,242.07z"/>
					<path class="st1" d="M477.69,342.22c-0.62,0.32-1.14,0.73-1.58,1.18C476.51,343.05,477.05,342.6,477.69,342.22z"/>
					<path class="st1" d="M535.73,418.68l0.79-0.07C536.21,418.58,535.93,418.59,535.73,418.68z"/>
					<path class="st1" d="M474.79,349.96c-0.23,0.5-0.36,1.04-0.32,1.58c0.09,0.1,0.17,0.21,0.28,0.26l-0.03-0.92L474.79,349.96z"/>
					<path class="st1" d="M689.48,415.94c-0.01,0-0.01,0-0.01,0S689.47,415.94,689.48,415.94z"/>
					<path class="st1" d="M696.46,400.55c0.16,1.09,0.4,1.34,0.75,1.37c0.35,0.04,0.79-0.18,1.11,0.09c0.1,0.77,0.02,1.25-0.08,1.54
						c-0.1,0.29-0.23,0.38-0.4,0.4c-0.33,0.04-0.72-0.15-1.1,0.26c-0.04,1.71,0.24,3.54-0.6,4.84c-0.21,0-0.41,0.21-0.44-0.2
						c-0.18,1.12-1.16,2.46-2.36,3.67c-1.19,1.22-2.56,2.31-3.42,3.48c-0.23,0.02-0.36-0.02-0.45-0.06c0.66,0.27,1.02,0.7,1.15,1.1
						c-1.17,0.72-1.97,1.86-2.76,1.41c0.79-0.33,0.72-0.65,0.97-1.01c-0.38,0.3-0.75,0.62-1.17,0.9c-0.81-0.22-0.38-0.5,0.18-0.81
						c0.54-0.34,1.25-0.69,1.06-1.05c-1.08,0.77-2.36,1.64-3.65,2.33c-1.3,0.68-2.62,1.16-3.72,1.26c-0.33-0.46,0.9-0.8,1.79-1.14
						c0.91-0.32,1.48-0.58,0.01-0.61c1.09-0.17,2.15-0.4,3.21-0.68c-1.45-0.3-0.97-0.46-0.49-0.62c0.48-0.19,0.95-0.38-0.38-0.76
						c-1.95,0.58-3.03,0.99-4.14,1.39c-1.11,0.4-2.26,0.77-4.43,0.91c-0.91,0.68,0.44,0.79-0.49,1.47
						c-3.12,0.86-4.47,0.24-5.55-0.29c-1.09-0.55-1.93-1.07-4.32-0.33c-1.23,0.71-1.7,2.01-5.18,1.39l1.16-1.18
						c-4.52-0.02-2.55,1.71-7.3,1.03c0.83-0.47,3.55-0.45,2.86-0.58c-3.08-0.85-2.16,0.7-4.52,0.74l-0.51-1.01
						c-4.81,0.24-10.1,1.05-15.43,1.28c0.29-0.31,1.2-0.63-0.05-0.93c-6.72,0.58-14.35-0.03-20.83-0.64l-2.48,0.88
						c-0.58-0.01-1.07-0.4-0.44-0.57c-2.53-0.33-0.13,0.56-1.35,0.9c-1.44,0.05-1.9-0.52-0.99-0.78
						c-4.46,0.73-12.72,1.54-17.41,0.54l0.92-0.25c-3.65-0.39-4.15,1.76-7.54,0.89l0.65-0.15c-7.94-0.49-16.73,0.14-22.76-1.35
						c-1.18,1.24-7.84-0.76-8.4,0.98c-4.51-1.02-3.2-1.28-9.56-2.08c-1.7-0.14-2.58,1.02-4.69,1.13l-0.02-0.93l-2.9,0.87l-1.48-1.16
						l-1.99,0.16c0.79,0.09,1.66,0.48,1.53,0.74c-3.1,0.3-7.5-0.94-7.56-1.42l-7.33,0.47c0.18-0.36,1.41-0.44,2.38-0.63
						c-3.94,0.77-0.66-1-4.27-0.3c0.47,0.23-0.28,0.54-0.37,0.72c-1.76-0.63-5.8-0.83-8.81-0.75l0.61-0.61
						c-5.4-0.42-11.44-0.29-17.48-0.64c2.14,0.42,1.58,1.5-0.19,1.5l-0.64-1.02c-1.17,0.53,1.81,0.49-0.56,1.07
						c-2.22-0.28-1.4-1.22-0.12-1.44c-0.9,0.05-1.79,0.09-2.68,0.12c-0.12-0.3,0.5-0.4,0.7-0.75c-0.57,0.26-1.66-0.1-2.78-0.45
						c-1.12-0.34-2.22-0.7-3.03-0.34l-0.07-0.31c-2.56-0.6-4.3-1.26-5.73-1.94c-1.42-0.73-2.73-1.59-3.99-3.02
						c-0.71,0.49-1.53-0.79-2.65-1.53c-0.55-1.38-0.76-2.89-0.58-4.31c0.17-1.43,0.67-2.79,1.44-4.22c0.4-1.09,0.42-1.34,0.26-1.47
						c-0.14-0.12-0.41-0.1-0.24-0.72c0.36,0.16,1.09-0.46,1.7-0.83c0.6-0.38,1-0.54,0.51,0.26c1.5-1.46,2.71-2.21,4.04-2.94
						c1.37-0.72,2.99-1.49,5.96-2.31c-0.71-0.21-1.48-0.18-1.15-0.52c1.09-0.35,2.62-0.09,2.49,0.3l-0.29,0.12
						c3.4-1.06,7.72-0.54,11.88-0.17c4.14,0.38,8.09,0.71,11.05-0.18l-0.33,0.09l6.15-1.02c2.85,0.05-1.69,0.63,0.43,1.04
						c6.63-1.48,10.54-0.13,16-1.14c2.18,1.07,5.88,0.93,9.93,0.65c2.08-0.16,4.39-0.43,6.68-1.02c1.14-0.29,2.28-0.68,3.36-1.13
						c1.08-0.46,2.06-0.95,3.1-1.62c-0.24-0.01-0.51-0.04-0.75-0.07c0.72-0.93,1.17-1.36,1.68-1.72c0.48-0.37,1.01-0.65,1.47-1.35
						c-0.44,0.04-1.74,1.7-1.19,0.45c1.1-1.74,1.82-3.69,1.92-5.91c0.03-1.11-0.06-2.27-0.49-3.47c-0.42-1.18-1.1-2.26-1.99-3.17
						c-1.54-1.52-3.39-2.23-4.96-2.61c-1.59-0.38-3.03-0.5-4.27-0.62c-2.53-0.25-5.07-0.5-7.61-0.74
						c-5.09-0.47-10.19-0.84-15.24-0.96c-4.79-0.06-2.66,2.79-8.67,1.72l1.66-1.05c-4.77,0.76-9.55,0.99-14.17,0.81
						c-4.63-0.18-9.01-0.78-13.19-1.57c0.55-0.07,0.65-0.36,1.43-0.13c-0.78-0.6-2.26-1.03-3.57-1.45
						c-1.32-0.39-2.51-0.66-2.66-0.42c-1.09-0.69-0.01-0.61-0.54-1.25c-0.62-0.62-1.63-0.99-2.52-1.43
						c-0.89-0.42-1.67-0.88-1.76-1.45c-0.04-0.18,0.5,0.15,0.78,0.29c-0.27-0.1-0.64-0.37-1.02-0.71c-0.39-0.33-0.8-0.72-1.14-1.08
						c-0.72-0.69-1.2-1.23-1.22-0.55c-0.82-1.26-1.58-2.4-2.27-3.51c-0.28-0.58-0.63-1.13-0.79-1.71c-0.1-0.29-0.18-0.57-0.25-0.86
						c-0.04-0.29-0.06-0.58-0.07-0.86c-0.15-0.15-0.29-0.34-0.39-0.56c-0.08-0.22-0.14-0.47-0.19-0.73c-0.1-0.53-0.12-1.1-0.08-1.62
						c0.06-1.06,0.22-1.92-0.38-2.27c0.66,0.21,1.09-0.89,1.64-1.95c0.27-0.53,0.57-1.07,0.87-1.53c0.34-0.5,0.65-0.95,0.86-1.25
						c-0.09,0.31,0.25,0.22,0.56,0.15c0.35-0.04,0.66-0.05,0.55,0.33c1.35-0.79,3.25-1.36,2.75-1.98c2.05,0.39,4.08-0.04,6.13-0.38
						c2.06-0.34,3.88-0.6,5.22,0.4c7.46-0.96,14.37-1.67,21.09-2.2c-0.2,1.36-7.44,0.37-7.1,1.78c6.37-0.76,10.02-2.03,16.36-1.9
						c1.65,0.13-0.91,0.62-1.46,0.86c6.36-0.76,12.34-0.26,17.99-1.18c-0.01,0.13-0.62,0.28-1.2,0.4c1.12-0.08,2.61,0.12,2.46-0.49
						l-1.09,0.2c-1.81-0.84,4.38-2,4.57-2.48c-1.84,1.82,5.62,0.27,2.67,2.59c0.73-0.14,1.65-0.46,1.47-0.86
						c1.1,0.09,1.45,0.31,0.36,0.82c1.95-0.22,2.77-0.51,3.39-0.78c0.64-0.28,1.22-0.45,3.21-0.86c0.05,0.29-0.74,0.59-1.1,0.99
						c0.99-0.47,1.95-0.97,3.07-1.56c1.12-0.62,2.43-1.19,4.06-2.48c-0.07,0.29,0.48,0.18-0.51,0.96c1.43-1.06,2.55-2.78,2.8-4.53
						c0.27-1.71-0.1-3.41-0.96-4.78c-0.88-1.41-2.11-2.28-3.36-2.98c-1.27-0.7-2.61-1.23-4.09-1.76c1.07-0.36,0.59-0.64-0.2-0.91
						c-0.79-0.29-1.87-0.53-1.96-1.1c-0.59-0.04-1.18-0.04-1.76-0.04c-0.58,0.01-1.2,0.03-1.69,0.07l1.29,0.62
						c-0.77-0.06-1.41-0.03-2.06,0.01c-0.65,0.05-1.28,0.1-1.9,0.15c-1.24,0.1-2.43,0.16-3.59-0.07l2.04-0.37l-5.11-0.01l2.87,0.55
						c-2.78,0.46,0.23,1.43-3.37,0.96c0.74-0.08-2.72-0.13-4.11-0.85l0.01,0c-1.36,0.3-2.76,0.61-4.76,0.25
						c-0.51-0.38,0.47-1.22,0.14-1.47c-1.37,0.88-6.38-0.01-8.11,0.91c0.57-0.21,0.63-0.8,0.45-0.92l-1.15,0.71
						c-1.25-0.3-1.43-0.42-1.2-0.88c-3.79-0.3,1.14,1.47-3.33,0.67c0.36-0.05,0.19-0.17,0.93-0.25c-4.5-0.54-8.78,0.29-12.46-1.18
						c-0.38-0.7,0.43-0.52,1.22-0.38c0.8,0.14,1.58,0.24,1.04-0.34c-2.67-0.39-5.25-1.03-7.39-2.64c-1.04-0.79-1.94-1.77-2.47-2.9
						c-0.56-1.12-0.71-2.38-0.5-3.57c-0.07,0.29-0.14,0.59-0.18,0.89c-0.79-0.33-0.57-1.4,0.09-2.45c0.65-1.08,1.64-2.06,2.16-3.29
						c-0.32,0.58,0.24,1.18,0.18,0.94c1.08-1.28,2.22-2.52,3.88-3.69c1.66-1.18,3.81-2.3,6.61-3.22l-0.6,0.57
						c2.24-0.22,5.96-1.03,8.49-1.34c0.66-0.54,2.09-0.75,1.12-1.17c8.1,0.82,14.37-4.03,21.53-3.43c-0.81,0.16-1.87,0.72-1.22,0.6
						l5.72-1.48c-0.59-0.59-0.84-0.27-2.16-0.56c0.66-0.54,2.23-1.17,3.66-1.45c-2.52,0.95,0.23,1.09,1.43,1.25
						c-0.23-0.17,0.11-0.48-0.02-0.67c3.26,0.63,0.24-1.46,4.53-1.46l-0.15,0.4c1.51-0.5,2.83-1.27,4.5-1.58
						c0.88,0.61-1.55,0.76-1.51,1.42c2.37-0.59,4.21-2.61,6.5-2.56c-0.89,0.55-2.3,0.99-3.24,1.47c2.56,0.24,2.78-0.08,4.53-0.55
						l-0.18,0.04c1.36-0.35,2.73-0.77,4.08-1.27c-0.36,0.09-0.73,0.16-1.09,0.23c1-1.58,2.26-2.45,3.72-3.32
						c0.69-0.48,1.43-0.97,2.14-1.55c0.67-0.64,1.35-1.35,1.87-2.28c-2.2,3.53-0.02,1,0.35,1.88c1.01-0.48,2.37-1.47,2.22-0.94
						c0.5-0.95,1.16-1.47,1.87-2.11c0.74-0.61,1.44-1.42,1.9-2.86c0.34,0.1,1.27-1.72,1.61-0.92c1.32-2.29-0.78,0.22-0.94-0.18
						c0.37-0.96,0.96-1.86,1.57-2.83c0.66-0.94,1.36-1.94,2.07-3.01c1.38-2.14,2.74-4.65,2.98-7.56c0.51-2.4,0.51-3.89,0.47-5.31
						c-0.02-0.71-0.03-1.4-0.05-2.2c-0.01-0.79,0.03-1.68,0.07-2.78c0.35-0.69,0.56-0.35,0.69,0.17c0.12,0.52,0.16,1.22,0.16,1.22
						c0.83-2.3,1.05-4.18,0.82-6.49c0.22,0.48,0.49,0.02,0.82-0.69c-0.04-1.89-1.02-1.25-0.68-3.71c0.36,0.4,0.88,0.92,1.24,1.84
						c-0.28-2.25-1.06-4.41-1.75-6.59c0.38-0.71,1.05,1.22,1.45,2.01c-0.14-0.65-0.3-1.39-0.54-2.14c-0.11-0.37-0.23-0.75-0.34-1.13
						c-0.15-0.37-0.29-0.73-0.43-1.08c-0.27-0.7-0.61-1.31-0.93-1.78c-0.31-0.47-0.6-0.8-0.88-0.9c0.14,0.54,0.21,1.1,0.31,1.65
						c-0.35-0.86,0.49-0.7,0.87-0.07c0.65,0.98,0.77,1.81,0.74,2.37c-0.07,0.57-0.31,0.9-0.45,0.99c-0.16-0.52-0.33-1.03-0.55-1.53
						c-0.29,0.51-0.35,1.13-0.28,1.85c0.11,0.71,0.3,1.52,0.55,2.39c0.47,1.73,1.05,3.73,0.94,5.35c-0.41-0.46-0.8-0.9-1.24-1.33
						c0.34,1.07,0.68,2.17,0.93,3.28c-0.37,0.68-1.1,1.07-1.18-0.48c-0.38,1.1-0.31,1.59-0.27,2.05c0.04,0.46,0.12,0.9-0.39,1.79
						c-0.14,0.19-0.18,0.09-0.2-0.11l0.01,2.22c-0.18-0.47-0.92,0.2-0.53-1.09c-0.69,1.85-0.79,3.41-0.91,4.69
						c-0.09,1.28-0.22,2.26-0.88,2.82l0.02-0.33c-0.27,1.32-0.42,2.02-0.43,2.41c-0.01,0.39,0.11,0.45,0.27,0.49
						c0.29,0.07,0.78,0,0.53,2.14c-1.07,0.59-2.07,1.16-3.16,1.65l0.61,0.86c-0.27,0.49-0.8,1.47-1.04,1.11
						c-0.42,2.12,0.52-0.13,0.48,1.21c-0.99,1.02-1.85,2.66-2.72,4.01c-0.45,0.66-0.88,1.26-1.29,1.67
						c-0.44,0.39-0.85,0.58-1.23,0.47c-0.06,1.19,2.03-1.69,0.61,0.87c-0.87-0.17-1.31,0.52-1.9,1.38c-0.29,0.43-0.57,0.95-0.96,1.4
						c-0.4,0.44-0.86,0.86-1.43,1.15c0-1.12,1.93-2.36-0.31-1.23c-0.03,0.49-0.25,0.95-0.65,1.32c-0.39,0.37-0.91,0.7-1.45,1.01
						c-0.53,0.33-1.17,0.53-1.71,0.81c-0.55,0.26-1.04,0.55-1.45,0.84c0.24,0.47-0.63,1.18-1.98,1.89c-1.35,0.71-3.17,1.39-4.76,2.1
						c0.04-0.21-1.53,0.19-3.56,0.56c-2.02,0.38-4.5,0.75-6.14,0.87l0.06-0.2c-0.39,1.21-3.77,1.64-6.15,2.33
						c-0.03-0.67,0.36-1,1.62-1.55l-2.28,0.44c-0.47,0.45-1.15,0.77-2.6,1.18l0.42-0.92c-3.02,0.63-5.92,2.12-9.93,2.33
						c-0.07,0.8,3.51,1.51-0.52,2.8c-0.23-0.38-0.52-1.05,0.53-1.42c-0.34,0.12-1.2,0.58-1.94,0.54l1.52-1
						c-1.83,0.04-0.82,0.75-2.25,0.96c-0.08-0.59-1.13-0.21-1.02-0.71c0.35-0.13,1.29,0,1.79-0.33c-1.62,0.2-3.62,0.23-4.35-0.09
						c0.2,0.3,0.15,0.78-1.01,1.08c-3.02,0.62-1.17-0.5-3-0.46c-0.66,0.55-2.67,0.5-2.56,1.38c-0.89,0.17-1.13-0.21-1.52-0.38
						c-1.49,0.68-7.32,1.52-5.37,2.1l0.42-0.02c-0.07,0.03-0.16,0.06-0.25,0.09c0.01,0,0,0,0.01,0l-0.01,0
						c-2.5,0.94-5.22,1.39-7.93,2.23c-1.35,0.42-2.69,0.96-3.94,1.68c-1.27,0.73-2.39,1.69-3.26,2.81l-0.22-0.2
						c-1.02,1.39-2.01,3.06-2.51,4.8c-0.53,1.73-0.48,3.52,0.01,4.67c0.09,0.96,0.06,2.46-0.41,2.16c0.58,1.29,1.12,1.85,1.66,2.56
						c0.57,0.69,1.14,1.54,2.46,2.94c-1.19-0.66-1.09-0.45-1.04-0.34c0.07,0.08,0.02,0.12-1.23-1.32c1.08,1.44,1.86,2.26,2.76,2.95
						c0.9,0.66,1.99,1.23,3.87,1.5c-0.72,0.12-0.21,0.61,0.74,1.03c0.94,0.43,2.29,0.73,3.1,0.75c-0.74-0.32-1.48-0.67-2.19-1.05
						c1.77,0.37,3.28,0.66,4.8,0.89l-0.95,0.89c1.67,0.51,3.26,0.63,4.73,0.6c1.47-0.04,2.83-0.22,4.17-0.36
						c2.67-0.3,5.15-0.51,7.5,0.61c1.7-0.63-3.4-0.64-1.88-1.39c2.89,0.26,5.85,1.82,6.76,1.86c3.95,0.72,3.77-1.3,7.9-0.74
						c-0.52-0.38-0.98-1.35,2.14-1.55c2.89,0.26,3.5,1.64,1.66,1.85c-0.7,0-1.03-0.13-0.99-0.25c-0.94,0.09-2.18,0.19-1.05,0.62
						l0.39-0.34c1.42,0.42,5.41,0.56,4.45,1.1c2.21-0.24,0.96-0.54-0.65-0.8c1.85,0.34,3.3,0.4,4.77,0.45
						c0.78,0.02,1.35,0.04,2.07,0.13c0.69,0.08,1.43,0.24,2.21,0.5c-0.46-0.31-0.89-0.8-0.35-0.7c1.17,0.36,1.88,0.59,2.34,0.73
						c0.46,0.11,0.68,0.11,0.88,0.07c0.19-0.04,0.38-0.13,0.67-0.1c0.29,0.03,0.75,0.14,1.38,0.58c0.47,0.76,0.05,0.87-0.06,1.02
						c-0.07,0.07-0.1,0.15,0,0.28c0.06,0.07,0.14,0.15,0.22,0.26c0.05,0.06,0.1,0.12,0.18,0.18c0.05,0.08,0.1,0.17,0.18,0.27
						c-0.01,0.63-0.28,0.66-0.51,0.58c-0.26-0.08-0.5-0.24-0.7-0.28c0.29,0.12,0.33,0.41,0.33,0.68c-0.03,0.29-0.21,0.46-0.38,0.58
						c-0.39,0.21-1.06,0.32-1.61,0.52c0.29-0.24,0.48-0.5,0.58-0.7c-0.19,0.38-0.68,0.66-1.25,0.87c0.3,0.14,0.62,0.27,0.92,0.37
						c-0.67,0.21-1.36,0.4-1.43,0.12c-0.32,0.35-0.1,0.58,0.06,0.87c0.14,0.29,0.22,0.63-0.64,1.18c-0.66-0.03-1.6,0.23-2.49,0.34
						c-0.9,0.11-1.66,0.08-1.95-0.38c2.11,0.07,1.92-0.21,1.72-0.47c-0.22-0.29-0.47-0.58,1.1-0.87c-0.59,0.2-1.36,0.29-2.29,0.2
						c-0.14-0.1,0.12-0.2,0.37-0.27c-0.23-0.04-0.44-0.07-0.63-0.1c-0.22-0.03-0.42-0.04-0.6-0.05c-0.36-0.02-0.64,0-0.87,0.03
						c-0.46,0.07-0.71,0.24-0.96,0.43c-0.51,0.39-1.03,0.88-3.27,0.93c0.55-0.55-1.07-0.98-1.8-0.84c1.81-0.05,0.89,0.86-0.75,1.32
						c-2.89-0.32-3.12,0.41-4.63,0.4l1.73,0.14c-0.57,0.55-2.01,0.53-4.01,0.76c-0.18-0.41,1.81-0.34,1.09-0.5
						c-2.2,1.01-5.07-0.81-8.15-0.08c-1.45-0.32-0.17-1-1.44-1.2c-3.46,0.8-3.79-0.61-7.44,0.07c1.08,0.68,1.26,0.5-1.3,1.28l6-0.69
						l-3.83,1.16c1.82-0.05,3.82-0.57,4.91-0.48c-1.82,0.64-1.64,0.46-0.75,1.02c-2.52-1-4.91,0.78-7.8,0.14l0.03-1.77
						c-4.34-0.66-7.64,1.15-13.26,0.88l1.81,0.25c-0.73,0.73-3.46,0.21-5.27,0.55c0.15-0.6-0.99-0.78-1.78-1.12
						c0.11,0.44-4.11,0.09-4.58,1.29l-2.53-0.7c-2.27-0.09-3.54,0.37-4.84,0.86c-1.29,0.51-2.53,0.99-4.81,1.27
						c1.28-0.84-0.9-0.99,2.19-1.83c-1.56,0.14-3.04,0.31-2.99,0.73c-0.5-0.09-1.59,0.35-2.7,0.93c-1.13,0.57-2.22,1.33-3.06,1.53
						c-0.24,0.32-0.33,0.62-0.52,1.02c-0.2,0.38-0.52,0.82-1.2,1.48c-0.23,0.07-0.21-0.21-0.21-0.21c0.1,0.11-0.34,0.73-0.53,1.25
						c-0.19,0.52-0.19,0.86,0.52,0.42c-1.1,0.7-2.02,2.01-2.55,3.55c-0.53,1.54-0.7,3.28-0.6,4.96c0.04,0.85,0.21,1.65,0.31,2.45
						c0.15,0.79,0.34,1.55,0.5,2.28c0.38,1.44,0.75,2.73,0.88,3.88c0.9,1.52,2.05,3.05,3.3,4.43c1.28,1.34,2.58,2.57,3.8,3.5
						c-0.26,0.01-0.2,0.22-0.61-0.2c0.72,0.8,1.3,1.2,1.8,1.39c0.49,0.2,0.89,0.24,1.3,0.26c0.85,0.03,1.66,0.14,3.56,1.5
						c0.86,0.94,0.25,0.8-0.45,0.52c-0.68-0.31-1.42-0.75-0.85-0.22c-0.19,1.02,1.16,1.69,2.89,2.23c1.73,0.59,3.81,0.92,5.22,1.87
						c-0.26-0.02-0.53-0.05-0.79-0.09c1.11,0.65,2.66,0.81,4.36,0.86c1.71,0.04,3.59-0.05,5.54,0.18c0,0-0.2,0.15-0.05,0.29
						c2.77-0.75,7.73-1.04,11.39-1.45c-1.12,0.79-1.66,0.44-0.94,1.2c1.65-0.15-0.51-1.22,2.76-1.54c1.08,0.38,3.45,0.66,3.79,1.47
						l-3.08,0.16c1.63,1.01,3.99-0.19,5.61-0.05l-0.19,0.47c4.68-0.28,4.73-1.46,9.78-1.4l-0.52-0.35c2.77-1.16,2.31,0.66,5.08-0.18
						l0.81,1.2c1.82-0.26,6.41-1,9.69-1.06c-1.9,0.78-5.73,1.09-8.1,1.57c1.8,0.04,6.12,0.1,7.08-0.44
						c-0.73,0.08-1.66,0.34-2.37,0.12c2.22-0.84,5.24-1.2,8.75-0.9c-0.23,0.59,0.3,0.95,1.07,1.29c0.77,0.33,1.73,0.73,2.23,1.3
						c0.47,0.53,0.69,1.19,0.57,1.93c-0.1,0.72-0.53,1.36-1.07,1.54c-0.15,0.99-0.74,1.91-1.52,2.44c-0.93,0.65-2.12,1.03-3.46,1.23
						c-1.36,0.2-2.87,0.22-4.52,0.2c-1.66-0.02-3.51-0.02-5.36,0.07c2.7,1.71-2.18,0.12-1.66,1.93c-1.73,0.17-2.4,0.16-2.55,0.04
						l-5.3-0.94c-1.26-0.5,1.64-0.45,1.47-0.86c-3.81-0.03-1.62-0.73-4.15-1.14c0.54,0.64-1.29,0.98-3.47,0.79l3.08,0.76
						c-5.28,1.13-4.64-1.4-9.97-0.28l1.68-0.63c-2.74,0.42-10.14,0.29-12.79,1.84c-0.49-0.2-1.15-0.68,0.06-0.85
						c-3.3-0.01-6.9,0.47-10.44,0.91c-3.56,0.45-6.99,1.02-9.82,1.23l0.44-0.56c-1.32,0.42-2.09,1.36-3.86,1.49
						c0.02-0.2,0.39-0.61-0.24-0.42c-0.32,0.2-1.14,0.72-2.07,1.31c-0.93,0.6-1.95,1.28-2.8,1.71c0.35-0.45,0.74-0.86,1.13-1.29
						c-3.47,1.67-5.51,4.13-6.75,6.71c-1.23,2.6-1.77,5.38-1.64,8.58c-0.65-0.04-1.17,1.58-0.97,3.65c0.17,2.07,1.13,4.36,1.93,5.72
						l-0.22,0.01c2.59,4.02,6.04,6.19,9.52,7.46c3.43,1.21,6.81,1.57,10.44,1.82c2.15,1.04,5.95,1.47,9.87,1.73
						c3.96,0.28,8.24,0.53,11.67,1.09c-1.04-0.29,0.22-1.02,1.46-1.09c1.61,0.35,4.52-0.69,4.2,0.51l-0.58-0.05
						c1.16,1.25,4.51,1.09,7.1,1.24l0.5-1.56c6.7,2.63,17.84-0.11,21.47,2.08c1.65-0.34,3.69-0.26,5.33-0.6l-0.12,0.85
						c4.54,0.35,6.81,0.54,12.44,0.48l-1.16,0.58c3.17,0.13,4.07-2.35,6.99-2.33l0.85,1.29c5.53,0.1,11.11,1.34,16.6,0.27
						c-0.09,0.18-0.26,0.55-1.16,0.59c2.6,0.07,10.07,1.01,9.14-0.75c0.05,1.13,5.71,0.17,8.7-0.3l-0.47,0.83
						c2.53-1.04,2.61-1.34,6.13-1.62c0.83,0.11,0.73,0.67-0.38,0.45c2.78,0.45,2.17-0.78,5.54-0.32l-1.26,0.53
						c2.86,0.08,2.63-0.22,4.21-0.84c1.8-0.34,5.42,0.21,5.85,0.97c0.38-0.46,1.95-1.07,3.64-0.87c0.23,0.28-0.38,0.46-0.69,0.55
						c4.79,0.54,7.1-1.01,10.4-0.2c0.07,0.28,0.29,0.41,0.56,0.49c-3.8,0.01-6.86-0.03-6.57-0.09c0,0.77,3.08,0.89,0.64,1.97
						c2.46-0.59,6.67-1.88,9.66-1.55c0.15,0.07,0.29,0.15,0.4,0.26l-0.31,0.09c0.69,0.07,1.31-0.01,1.89-0.14
						c0.96,0.12,1.56,0.2,2.48,0.21c0.36,0.64,3.53,0.3,5.06,0.31c-0.14-0.84,1.87-0.74-0.02-1.4c0.24,0.06-0.29,0.11-1.3,0.16
						c-0.23,0.03-0.5,0.04-0.65,0.1c0.03-0.02,0.07-0.05,0.1-0.08c-1,0.04-2.31,0.08-3.8,0.1c1.2-0.44,2.46-0.81,4.16-0.37
						c0.78-0.55,1.63-1.12,2.12-1.39c2.11,1.14,6.16,1.72,6.73,2.44c4.67-0.57,11-0.51,13.92-2.2c1.33-0.25,1.56,0.39,2.08,0.62
						c-0.77,0.2-1.7,0.21-2.11,0.45c1.34-0.25,3.34-0.37,5.08-0.65c1.75-0.27,3.22-0.67,3.47-1.26c3.48-0.01-1.79,1.33,2.91,0.39
						l-0.58,0.44c2.42,0.03,4.61-0.47,6.57-1.3c1.95-0.83,3.72-1.98,5.32-3.32c1.6-1.34,3.04-2.82,4.54-4.43
						c1.5-1.62,3.06-3.35,4.79-5.59c-0.45,0.64-0.7,0.93-0.95,0.97c1.76-2.55,2.81-5.79,2.7-9.1c-0.08-3.31-1.32-6.49-3.1-9.12
						c-1.79-2.65-4.09-4.82-6.61-6.62c-2.54-1.8-5.23-3.18-7.95-4.47c-3.16-1.28-3.71-0.61-5.77-0.5l-0.53-1.02
						c-1.2,0.13-2.38,0.31-3.54,0.49c-2.43,0.06-4.4-0.7-6.6-1.37c-2.18-0.65-4.58-1.21-7.65-0.59l0.76,0.64
						c-2.17-0.23-6.89,0.24-6.53-0.46c-0.22,0.11-0.71,0.64-1.56,0.33l-0.07-0.47c-1.78,0.29-3.56,0.63-5.32,0.99
						c-4.16-0.08,0.55-1.97-5.55-1.59c-2.26,0.36-6.26,2.06-5.37,2.28c0.9-0.08,2.33,0.02,2.45,0.49l-2,0.48
						c-0.21,1.44-1.52,3.01,3.44,3.44c1.1-0.41,2.21-0.78,3.32-1.16l1.15,0.6c-0.95,0.08-1.9,0.17-2.85,0.27
						c1.67,0.49,2.65-0.14,3.78-0.61c0.3,0.34,0.79,0.57,1.47,0.66c1.08-0.5,2.18-1,3.29-1.47c0.42,0.54-1.46,1.12,0.78,1.36
						c1.55-0.66-1.54-1.19,1.06-1.66c1.65,0.62,1.17,1.12,3.09,0.59c0.27,0.36-0.14,0.59-0.89,0.74c1.7-0.44,4.5-0.13,5.4-0.84
						c1.67,0.82,5.78,0.09,5.51,1.42c0.55-0.28,3.07-0.8,4.64-0.68c-1.51,0.63-0.05,0.81,1.66,1.04c1.7,0.24,3.61,0.58,3.12,1.37
						c1.12-0.55,2.98-0.4,4.94,0c1.98,0.39,4,1.07,5.73,1.39c-0.23,0.03-0.66,0.1-0.91-0.09c1.74,0.85,2.03,1.5,2.93,2.31
						c0.79-0.94,3.42,0.39,5.08,1.07c0.47,1.24-0.06,1.21-0.67,1.09c-0.62-0.14-1.38-0.33-1.48,0.3c0.27-0.4,1.15,0.04,1.91,0.54
						c0.77,0.48,1.42,1.02,1.49,0.46c0.51,1.79,0.62,1.42,0.26,2.64c0.69-0.26,0.97,0.05,1.19,0.51c0.23,0.47,0.42,1.07,1.07,1.57
						c0.05,1.25-0.33,1.46-0.46,1.67c-0.07,0.1-0.11,0.2-0.09,0.42c0.02,0.22,0.15,0.54,0.3,1.12c-0.17,0.58-0.44,0.33-0.66-0.01
						C696.68,401,696.46,400.55,696.46,400.55z M637.81,421.37c0-0.01,0-0.02,0-0.02c0.66-0.03,1.22-0.05,1.58-0.06
						C639.06,421.3,638.6,421.33,637.81,421.37z M631.4,421.43c0.78,0.03,1.75,0.03,2.78,0.02c0.23,0.29-0.01,0.59-0.66,0.58
						C633.87,421.83,632.36,421.67,631.4,421.43z M645.04,427.15c-1.02,0.13-1.36-0.03-1.5-0.2c0.48-0.02,1.04-0.05,1.78-0.12
						c0.03-0.03,0.09-0.07,0.12-0.1C645.34,426.88,645.23,427.04,645.04,427.15z"/>
					<path class="st1" d="M646.86,426.02c0.15-0.02,0.23-0.06,0.42-0.07c-0.21-0.07-0.41-0.13-0.61-0.18
						c-0.12,0.09-0.25,0.19-0.36,0.27C646.49,426.03,646.68,426.02,646.86,426.02z"/>
					<path class="st1" d="M512.89,292.91l-0.14,0.01c0.12,0.01,0.23,0.02,0.3,0.06C512.96,292.95,512.96,292.93,512.89,292.91z"/>
					<polygon class="st1" points="542.88,418.52 542.88,418.74 543.45,418.57 					"/>
					<path class="st1" d="M548.19,289.08c0.08,0.06,0.23,0.11,0.5,0.12C548.65,289.16,548.44,289.12,548.19,289.08z"/>
					<path class="st1" d="M563.33,285.55c0.74-0.17,1.48-0.36,2.22-0.57C564.58,285.22,563.88,285.39,563.33,285.55z"/>
					<path class="st1" d="M574.26,279.72c0.03-0.21-0.01-0.33-0.04-0.43l-0.02,0.01L574.26,279.72z"/>
					<path class="st1" d="M537.68,337.91c-0.16,0.01-0.31,0.03-0.45,0.05C536.17,338.16,536.89,338.08,537.68,337.91z"/>
					<path class="st1" d="M535.08,318.89c0.6-0.13,1.18-0.25,1.8-0.32C535.89,318.46,535.13,318.41,535.08,318.89z"/>
					<path class="st1" d="M477.91,342.12c0-0.01,0-0.01,0-0.01c-0.07,0.04-0.14,0.08-0.21,0.12L477.91,342.12z"/>
					<path class="st1" d="M539.46,318.7c-0.98-0.21-1.81-0.21-2.58-0.13C537.69,318.66,538.64,318.79,539.46,318.7z"/>
					<path class="st1" d="M589.89,230.89l-0.18-0.6c-0.05,0.03-0.1,0.01-0.15-0.03L589.89,230.89z"/>
					<path class="st1" d="M589.56,230.26l-0.33-0.62C589.34,229.94,589.43,230.2,589.56,230.26z"/>
					<path class="st1" d="M588.47,228.37c0.27,0.41,0.54,0.84,0.75,1.27C589.08,229.16,588.83,228.57,588.47,228.37z"/>
					<path class="st1" d="M590.58,247.39l0.27,0.23C590.81,247.51,590.72,247.43,590.58,247.39z"/>
					<path class="st1" d="M589.79,252.23c0.15-0.56,0.46-1.25,0.75-2.01c0.26-0.76,0.49-1.59,0.53-2.42l-0.22-0.19
						c0.16,0.41-0.16,1.28-0.49,2.18C590.03,250.71,589.64,251.63,589.79,252.23z"/>
					<path class="st1" d="M578.83,269.06c0.41-0.49,0.75-1.04,1.12-1.56c0.38-0.52,0.74-1.05,1.07-1.61
						c-0.61,0.44-1.39,0.98-0.65-0.57c-0.76,0.95-1.13,1.34-1.22,1.53c-0.09,0.19,0.07,0.15,0.25,0.13
						C579.77,266.93,580.24,266.97,578.83,269.06z"/>
					<path class="st1" d="M570.59,277.34c1.45-1.39-0.31-0.35-0.34-0.57c-0.38,0.53-0.68,0.78-0.65,0.9
						C569.6,277.76,569.92,277.7,570.59,277.34z"/>
					<path class="st1" d="M494.92,312.24c-0.27,0.03-0.54,0.05-0.81,0.07C495.12,314.15,494.38,312.2,494.92,312.24z"/>
					<path class="st1" d="M511.08,317.04c-0.5-0.2-0.98-0.41-1.45-0.63l-0.8,0.6C509.58,317.05,510.33,317.05,511.08,317.04z"/>
					<polygon class="st1" points="520.78,322.98 520.06,323.06 522.8,322.9 					"/>
					<path class="st1" d="M468.22,354.56c0.24-0.27,0.48-0.54,0.75-0.81C468.53,352.59,467.38,352.54,468.22,354.56z"/>
					<path class="st1" d="M528.13,373.78c0.7,0.47,2.49,0.78,3.6,0.33C530.3,374.02,528.87,373.65,528.13,373.78z"/>
					<polygon class="st1" points="525.53,425.43 524.22,425.69 526.67,425.53 					"/>
				</g>
			</g>
		</g>
	</g>
</g>
<g class="st0">
	<g>
		<g>
			<g>
				<g>
					<path class="st2" d="M474.46,428.22c-0.41,0.24-0.21,0.84,0.9,0.77l0.83-0.96L474.46,428.22z"/>
					<path class="st2" d="M481.81,430.38c1.32-0.42,2.85-1.2,2.05-2.15c-1.33,0.9-1.62,0.49-3.05,1.56
						c-1.11,0.07-1.91-0.4-1.71-0.76c-0.4,0.24-1.71-0.29-2.33,0.3c1.4,0.83,3.22,0.94,5.15,0.39
						C482.31,429.96,481.91,430.2,481.81,430.38z"/>
					<path class="st2" d="M589.78,435.23l-0.69-0.13C589.28,435.17,589.52,435.21,589.78,435.23z"/>
					<path class="st2" d="M656.76,436.4c-0.51,0.02-0.72,0.12-0.75,0.21C656.48,436.55,656.87,436.49,656.76,436.4z"/>
					<path class="st2" d="M668.2,437.5c-0.25-0.02-0.45-0.04-0.67-0.07C667.78,437.52,668.04,437.57,668.2,437.5z"/>
					<path class="st2" d="M589.78,435.23l1.78,0.34C591.7,435.25,590.66,435.32,589.78,435.23z"/>
					<path class="st2" d="M496.79,428.61c-0.38,0.03-0.69,0.11-0.98,0.22c0.31-0.03,0.61-0.05,0.92-0.07
						C496.74,428.71,496.76,428.67,496.79,428.61z"/>
					<path class="st2" d="M560.25,435.42l-0.54-0.01c-0.16,0.11-0.32,0.24-0.46,0.39L560.25,435.42z"/>
					<path class="st2" d="M537.59,434.95c0.51,0.05,0.71-0.79,0.92-1.15c-0.3,0.34-0.68,0.49-1.13,0.54
						C537.36,434.51,537.42,434.7,537.59,434.95z"/>
					<path class="st2" d="M501.73,432.23l-0.64,0.09C501.25,432.29,501.53,432.27,501.73,432.23z"/>
					<path class="st2" d="M576.46,435.97c0.04,0.13,0.11,0.24,0.2,0.31C576.66,436.17,576.58,436.06,576.46,435.97z"/>
					<path class="st2" d="M451.55,425.88c-0.01,0.06,0.03,0.1,0.03,0.15C451.7,425.92,451.73,425.85,451.55,425.88z"/>
					<path class="st2" d="M478.32,430.95l-0.37-0.01c-0.06,0.15-0.12,0.3-0.14,0.46L478.32,430.95z"/>
					<path class="st2" d="M689.14,438.48c-0.04-0.01-0.05-0.01-0.09-0.02C688.5,438.57,688.81,438.55,689.14,438.48z"/>
					<path class="st2" d="M642.53,563.33c1.9-1.31-1.32,3.44,1.29,1.29C643.37,564.66,644.56,561.44,642.53,563.33z"/>
					<path class="st2" d="M497.37,428.75c0.31,0,0.62,0.01,0.93,0.03C497.88,428.73,497.59,428.72,497.37,428.75z"/>
					<path class="st2" d="M643.83,564.61L643.83,564.61l0.27-0.22C643.98,564.49,643.92,564.54,643.83,564.61z"/>
					<path class="st2" d="M725.49,452.82c0.13-0.11,0.22-0.3,0.28-0.48C725.69,452.37,725.62,452.48,725.49,452.82z"/>
					<path class="st2" d="M701.32,436.8l0.86,0.15C701.84,436.86,701.56,436.82,701.32,436.8z"/>
					<path class="st2" d="M724.19,469.24c-0.26,0.38-0.42,0.47-0.6,1.07c0.07-0.03,0.12-0.07,0.18-0.12
						C723.76,469.94,723.84,469.65,724.19,469.24z"/>
					<path class="st2" d="M713.16,484.17c0.12-0.03,0.24-0.09,0.37-0.14c0.12-0.15,0.26-0.32,0.38-0.47L713.16,484.17z"/>
					<path class="st2" d="M433.67,476.72c-0.07-0.51-0.02-0.89,0.07-1.22C433.44,476.11,431.51,473.74,433.67,476.72z"/>
					<path class="st2" d="M496.78,429.09c0.12-0.21,0.29-0.31,0.59-0.34c-0.22,0.01-0.44,0.01-0.65,0.02
						C496.66,428.89,496.65,429.01,496.78,429.09z"/>
					<path class="st2" d="M729.81,472.9c-0.55,0.99-1.12,1.97-1.74,2.9C728.63,475.05,729.26,473.98,729.81,472.9z"/>
					<path class="st2" d="M526.01,581.17l-0.55-0.49C525.63,580.91,525.81,581.09,526.01,581.17z"/>
					<path class="st2" d="M722.42,483.83c-0.6,0.26-1.13,0.61-1.63,1c-0.04,0.14-0.1,0.29-0.08,0.42
						C721.28,484.78,721.85,484.32,722.42,483.83z"/>
					<path class="st2" d="M433.74,475.49c0,0.01,0,0.01,0,0.01S433.75,475.5,433.74,475.49z"/>
					<path class="st2" d="M424.29,455.31c0.06,1.73,0.44,2.08,0.78,2.11c0.36,0.02,0.76-0.28,1.12,0.02
						c0.38,1.9,0.33,2.35,0.03,2.54c-0.28,0.19-0.75,0.08-0.89,0.8c0.81,2.4,2.39,3.82,2.96,5.49c-0.12,0.19-0.05,0.53-0.42,0.24
						c0.88,1.02,1.61,2.73,2.57,4.39c0.93,1.68,2.05,3.29,3.32,4.12c0.04,0.23,0.03,0.37-0.01,0.46c0.19-0.7,0.62-1.07,1-1.22
						c0.78,1.11,2.03,1.59,1.76,2.44c-0.48-0.67-0.75-0.55-1.17-0.73l1.11,0.94c-0.04,1.65-1.46-1.32-2.08-0.88
						c1.93,2.1,4.69,3.96,5.89,5.69c-0.48,1.06-3.55-3.49-2.35-0.74c-0.63-0.92-1.25-1.84-1.83-2.79c0.35,3-1.19-1.66-1.05,1.25
						c1.29,1.84,2.23,2.66,3.15,3.49c0.93,0.81,1.85,1.62,3.27,3.25c1.08,0.29,0.37-0.82,1.45-0.53c5.02,3.48,1.66,5.16,5.78,7.19
						c1.28,0.28,2.5-0.36,4.25,2.27l-1.55,0.1c2.79,2.87,2.81,0.4,5.24,3.93c-0.85-0.22-2.5-1.96-2.17-1.44
						c1.28,2.56,1.82,0.9,3.29,2.4l-0.43,1.02c3.09,2.94,6.83,5.92,10.14,9.35c-0.4,0-1.18-0.39-0.67,0.65
						c4.37,4.14,8.32,9.76,11.61,14.6l2.11,1.13c0.33,0.4,0.31,0.99-0.18,0.67c1.21,1.95,0.5-0.27,1.47,0.34
						c0.88,0.95,0.71,1.63-0.02,1.18c3.15,2.59,8.58,7.71,10.58,11.55l-0.73-0.46c1.84,2.75,3.77,1.68,5.11,4.54l-0.5-0.35
						c4.3,5.71,10,11.23,12.49,16.26c1.64-0.02,4.12,5.77,5.77,4.99c1.95,3.69,0.96,3,4.21,7.77c0.92,1.23,2.32,1.04,3.68,2.37
						l-0.68,0.63l2.4,1.35l0.04,1.76l1.35,1.23c-0.43-0.59-0.67-1.44-0.4-1.52c1.06,0.94,2.07,2.36,2.83,3.59
						c0.76,1.23,1.28,2.28,1.15,2.48c1.89,1.5,3.97,2.92,6.3,3.99c-0.34,0.24-1.51-0.33-2.46-0.74c1.93,0.8,2,1.04,1.99,1.35
						c0,0.28-0.06,0.62,1.9,1.11c-0.39-0.41,0.5-0.38,0.65-0.52c0.73,0.66,2.23,1.38,3.92,1.79c1.68,0.42,3.51,0.54,4.98,0.49
						l-0.61,0.6c1.36,0.13,2.71,0.14,4.02,0.12c1.31-0.03,2.59-0.08,3.92-0.13c2.64-0.11,5.36-0.24,8.1-0.25
						c-1.96-0.28-1.52-1.39,0.08-1.51l0.65,0.97c1.03-0.61-1.68-0.36,0.44-1.11c2.04,0.1,1.38,1.1,0.21,1.43l2.48-0.35
						c0.15,0.29-0.43,0.45-0.58,0.82c1.02-0.61,4.3,0.95,5.76-0.11l0.14,0.29c5.47-0.03,7.95-0.38,12.4-0.46
						c0.08-0.84,1.83-0.67,3.15-1.36c3.28,0.25,6.91,0.89,10.86,0.79c2.77-0.44,0.81-0.72,2.05-1.23c0.21,0.77,4.15,0.67,2.11,1.24
						c4.73-0.16,6.05-0.19,12.03-0.85c-0.65-0.31-1.38-0.44-1.01-0.71c1.09-0.13,2.47,0.31,2.32,0.68l-0.29,0.08
						c1.69-0.31,3.45-0.29,5.45-0.24c1.98,0.04,4.18,0.08,6.48-0.43c2.3-0.51,4.41-1.54,6.03-2.76c1.62-1.23,2.79-2.62,3.44-4
						l-0.16,0.3c1.14-1.73,2.05-3.46,2.92-5.16c1.6-2.03-0.43,1.6,1.07,0.31c1.21-2.82,2.61-4.69,3.98-6.45
						c1.39-1.74,2.74-3.33,3.84-5.57c4.07-1.7,7.93-10.89,12.28-14.01l-0.6-0.1c0.4-1.37,1.23-1.07,1.92-1.76
						c-0.41-0.15-1.26,0.83-0.98,0.01c6.44-9.22,15.2-17.49,23.13-25.77c2.89-3.04-0.48-3.62,4-6.72l-0.27,1.78
						c4.79-7.11,11.76-12.74,16.83-19.38c-0.18,0.51,0.02,0.73-0.55,1.31c1.73-0.76,4.56-4.61,4.17-5.04
						c0.96-0.87,0.59,0.16,1.36-0.19c1.54-0.94,2.47-3.78,3.65-3.93c0.2-0.03-0.19,0.52-0.38,0.78c0.57-1.05,3.9-3.76,2.52-3.55
						c2.53-1.97,4-4.63,6.08-6.26c0.21-0.94,1.2-1.93,2.04-2.87c0.85-0.94,1.53-1.84,1.16-2.45c0.47,0.5,1.57-0.5,2.57-1.97
						c1.02-1.45,1.84-3.41,2.06-4.5c0.04,0.84,1.22-1.48,1.35-0.48c0.56-1.11,0.96-2.3,1.14-3.14c0.15-0.85,0.08-1.37-0.33-1.28
						c1.53-1.92,1.8-4.35,1.82-6.44c0.02-2.11-0.1-3.88,0.9-5.23c-0.4-3.85-1.51-7.5-3.27-10.71c-1.76-3.21-4.29-5.86-7.07-7.79
						c0.49-0.46,2.07,0.69,3.39,2.05c0.65,0.68,1.25,1.4,1.75,1.88c0.47,0.5,0.86,0.75,1.11,0.49c-2.19-2.77-4.55-4.26-6.83-5.47
						c-2.32-1.19-4.64-2.1-7.54-3.18c-1.49-0.63,1.05-0.33,1.66-0.3c-3.12-0.83-6.04-1.43-8.88-1.8c-2.83-0.36-5.56-0.48-8.18-0.16
						c0.02-0.13,0.58-0.25,1.12-0.34c-1.04,0.01-2.4-0.25-2.29,0.37l1-0.15c1.6,0.9-4.07,1.83-4.23,2.32
						c1.69-1.77-5.04-0.41-2.35-2.66c-0.66,0.12-1.49,0.42-1.33,0.83c-0.98-0.11-1.29-0.35-0.3-0.83c-3.59,0.36-2.31,1-5.57,1.01
						c0.01-0.3,0.67-0.42,1-0.77c-1.65,0.59-3.3,1.19-6.06,0.95c0.16-0.18-0.16-0.41,0.67-0.41c-4.73,0.1-8.06,1.57-13.25,1.03
						c1.53-1.3-1.77-0.42-2.04-1.54l-2.79,0.33l1.12,0.54c-2.44-0.02-4.61,0.8-6.71,0.43l1.82-0.46l-4.58,0.21l2.59,0.43
						c-2.47,0.58,0.26,1.42-2.99,1.1c0.66-0.11-2.45-0.02-3.72-0.68l0.01,0c-1.21,0.35-2.46,0.72-4.26,0.44
						c-0.47-0.36,0.38-1.24,0.08-1.48c-1.2,0.93-5.73,0.24-7.24,1.23c0.51-0.23,0.53-0.82,0.37-0.94l-1.01,0.75
						c-1.13-0.25-1.3-0.37-1.11-0.84c-3.41-0.16,1.07,1.43-2.97,0.79c0.32-0.06,0.17-0.17,0.83-0.28
						c-4.06-0.35-7.85,0.44-11.58,0.02c-1.09-1.14,3.26-0.24,2.01-1.21c-5.38,0.14-11.15,1.25-16.36,0.91l0.97,0.14
						c-0.74,1.58-3.87-0.84-6.51-0.13c0.65-0.11,0.86-0.87,0.68-0.7c-3.56-0.3-7.29,0.29-12.7,0.7l0.68-0.4
						c-2.09-0.4-5.53-0.3-7.8-0.53c-0.68,0.39-1.98,0.3-1.2,0.91c-6.95-2.47-13.38,0.98-19.54-1.11c0.74,0.01,1.78-0.32,1.19-0.33
						l-5.3,0.25c0.4,0.7,0.68,0.44,1.78,1c-0.68,0.4-2.18,0.68-3.49,0.65c2.39-0.4,0.01-1.11-1.01-1.52
						c0.17,0.22-0.19,0.44-0.11,0.66c-2.73-1.31-0.5,1.38-4.25,0.45l0.21-0.36c-1.42,0.15-2.73,0.59-4.25,0.45
						c-0.61-0.82,1.51-0.33,1.63-0.99c-2.14-0.01-4.26,1.4-6.17,0.55c0.91-0.2,2.22-0.17,3.13-0.36c-2.08-1-2.33-0.77-3.89-0.96
						l0.15,0.03l-3.61-0.54l0.91,0.28c-2.74,2.01-5.46,0.22-9.1,1.48c3.54-1.19,0.6-0.73,0.9-1.63c-0.91-0.28-2.3-0.61-1.9-0.85
						c-1.73,0.68-2.82-0.67-5.26,0.32c-0.1-0.3-1.82-0.09-1.41-0.81c-2.22,0.16,0.51,0.53,0.31,0.89
						c-3.45,0.88-7.98-1.47-12.93-0.29c-4.25,0.41-5.07,1.36-9.02,1.71c-1.31-0.52,1.13-1.02,1.13-1.02
						c-2.12-0.51-3.73-0.5-5.76-0.24c0.42-0.24,0.01-0.47-0.59-0.83c-1.62,0.01-1.12,1.02-3.24,0.5c0.38-0.31,0.87-0.81,1.66-1.11
						c-1.92,0.19-3.82,0.66-5.8,0.84c-0.5-0.53,1.22-0.72,1.93-1.03c-2.23,0.14-5.76,0.23-6.48,1l1.41,0.35
						c-0.81,0-0.39-0.71,0.22-0.83c1.93-0.55,2.73,0.39,2.82,0.69l-1.41,0.13c1.37,1.77,5.66-0.05,8.48,0.17l-1.23,1.2l2.94-0.92
						c0.6,0.35,1,1.06-0.41,1.19c2,0.7,1.81-0.37,3.53,0.39c0.19,0.11,0.1,0.17-0.08,0.21l2-0.3c-0.4,0.25,0.3,0.89-0.92,0.67
						c3.53,0.85,5.77-0.72,7.08,0.27l-0.3,0.07c4.95-0.24,0.51-0.9,4.25-1.83l2.41,2.35l0.52-0.9c0.51,0.05,1.51,0.15,1.31,0.51
						c1.92-0.56-0.31-0.41,0.81-0.96c2.42,0.92,6.77-0.16,7.28,1.31c0.9-0.67-2.33-0.62,0.31-1.01c0.7,1.59,3.03-0.16,5.25,0.62
						c-0.71,0.79-2.82,0.3-0.6,1.09c1.39-1.33,4.35,0.43,6.25,0.23c0.12-1.09,4.12-0.33,7.3-0.6c-0.21,0.36,5.95,0.76,8.89,1.23
						l-0.09,0.18c0.6-1.09,3.64-0.79,5.86-0.97c-0.1,0.66-0.51,0.91-1.72,1.17l2.08,0.04c0.5-0.34,1.15-0.51,2.51-0.61l-0.54,0.81
						c2.77,0.02,5.61-0.84,9.16-0.2c0.22-0.76-2.79-2.2,0.99-2.63c0.13,0.42,0.25,1.13-0.74,1.28c0.32-0.05,1.16-0.32,1.81-0.13
						l-1.52,0.67c1.62,0.34,0.86-0.57,2.16-0.47c-0.04,0.59,0.95,0.44,0.76,0.91c-0.33,0.05-1.13-0.27-1.63-0.05
						c1.46,0.14,3.23,0.52,3.8,0.98c-0.12-0.34,0.02-0.8,1.09-0.85c2.77,0.01,0.93,0.73,2.55,1.07c0.68-0.4,2.44,0.06,2.5-0.82
						c0.81,0.02,0.95,0.44,1.26,0.68c1.44-0.36,6.71,0,5.11-0.96l-0.37-0.07c0.07-0.02,0.15-0.02,0.24-0.03c-0.01,0,0,0-0.01,0
						l0.01,0c4.72-0.8,9.76,0.67,14.44,0.35l-0.01,0.3c2.79-0.3,6.2-0.12,8.2-0.73c0.82,0.01,1.94,0.56,1.58,0.91
						c2.13-0.2,2.37-0.53,5.45-0.01c-2.15,0.49,0.73,0.47-2.2,0.36c2.76,0.28,3.39,0.77,6.37-0.01c-1.02,0.75,2.08,0.98,3.39,0.76
						l-1.93-0.56c1.48-0.09,2.77-0.02,4.09,0.06l-0.72,0.99c5.66,1.25,10.23-1.99,14.53,0.06c1.5-0.69-3.07-0.5-1.73-1.31
						c2.6,0.14,5.31,1.59,6.13,1.59c3.57,0.57,3.34-1.45,7.07-1.06c-0.48-0.36-0.93-1.3,1.87-1.64c2.61,0.13,3.2,1.49,1.56,1.78
						c-0.63,0.03-0.93-0.08-0.9-0.2c-0.84,0.13-1.95,0.28-0.92,0.67l0.34-0.36c1.29,0.36,4.88,0.33,4.04,0.91
						c1.97-0.34,0.84-0.58-0.62-0.77c3.34,0.52,5.23,0.02,8.67,0.36c-0.55-0.2-1.05-0.61-0.51-0.61c5.05,0.43,2.22-0.68,5.64-0.85
						c1.95,0.54-0.69,1.3,2.75,0.83c2.1,0.36,0.45,0.94-0.39,1.24c3.14-0.7,5.87,0.44,7.66,0.55l-1.65,0.3
						c0.99-0.17,1.8-0.18,2.62-0.18L682.7,438c0.97,0.12,1.79,0.11,1.78,0.41c1-0.47-0.77-1.18,1.21-1.83
						c1.3,0.35,3.94-0.41,4.39,0.53c-4.07-0.29,0.46,0.95-2.99,1.12c0.66-0.12,1.47-0.12,2.45,0c0.15,0.1-0.14,0.2-0.4,0.25
						c3.9,0.82,1.78-1.08,5.82-1.08c-0.5,0.54,0.94,1.01,1.58,0.89c-1.6,0-0.77-0.89,0.7-1.3c2.54,0.43,2.76-0.27,4.08-0.19
						l-1.51-0.24c0.53-0.52,1.8-0.43,3.57-0.49c0.13,0.41-1.61,0.2-1,0.42c2.03-0.83,4.3,1.24,6.95,1.07
						c1.13,0.57-0.06,1.01,0.92,1.43c0.72-0.01,1.27,0.08,1.71,0.21c0.44,0.15,0.77,0.36,1.11,0.56c0.34,0.19,0.67,0.41,1.09,0.62
						c0.42,0.2,0.94,0.35,1.62,0.53c-0.44-0.98-0.69-0.92,1.48-0.68c-1.53-0.55-3.08-1-4.71-1.26c1.11-0.06,2.21-0.03,3.34,0.04
						c-1.41-0.58-3.15-0.63-4-0.95c1.64-0.17,1.45-0.01,0.9-0.8c0.44,0.41,0.91,0.65,1.42,0.8c0.49,0.18,1.02,0.28,1.57,0.38
						c1.07,0.22,2.23,0.49,3.1,1.42l-0.96,1.5c1.19,1.2,2.46,1.8,3.73,2.78c1.26,0.92,2.61,2.15,3.32,4.24
						c-0.07-0.48-0.24-0.91-0.36-1.39c0.95,0.17,1.32,2.42,1.98,3.73c-0.6,0.03-0.6,0.97-0.81,1.63c0.23-0.09,0.34,0.71,0.57,1.55
						c0.17,0.86,0.45,1.78,1.02,1.97c-0.25,0.7-0.47,1.38-0.78,2.05c-0.22,1.81,0,2.89,0.26,4.02c0.24,1.12,0.44,2.29-0.21,4.05
						c-0.3-1.25-1.16,0.19-0.93-2.23c-0.32,1.14-0.75,2.12-0.38,2.27c-0.3,0.27-0.36,1.12-0.57,1.99c-0.16,0.89-0.49,1.82-0.97,2.2
						c-0.02,0.57,0.46,1.02-0.28,2.23c-0.18,0.07-0.25-0.15-0.25-0.15c0.25,0.14-0.8,2.11,0.4,1.38c-1.81,1.2-3.32,3.41-4.97,5.54
						c-1.64,2.12-3.38,4.14-5.14,4.83c-1.78,2.17-4.09,4.7-5.89,6.56c-0.01-0.24-0.2-0.22,0.19-0.52c-2.92,2.13-0.35,2.76-3.66,5.2
						c-2.15,0.8,1.16-1.9-0.01-1.23c-1.79-0.98-3.27,3.68-5.99,4.85l0.38-0.56c-1.95,1.03-3.02,4.2-5.48,6.58
						c0,0-0.01-0.24-0.2-0.22c-0.88,2.39-3.67,5.84-5.68,8.45c0.13-1.27,0.71-1.38-0.28-1.44c-0.91,1.16,1.21,0.52-0.61,2.84
						c-0.95,0.43-2.66,1.75-3.46,1.4l1.84-2.09c-1.76,0.33-2.4,2.69-3.5,3.66l-0.22-0.45c-2.73,3.28-1.89,4.1-4.96,7.49l0.58-0.12
						c-0.76,2.65-1.89,1.14-2.85,3.6l-1.39-0.2c-0.86,1.44-2.89,5.13-4.6,7.55c0.39-1.85,2.28-4.79,3.28-6.76
						c-1.08,1.23-3.54,4.3-3.63,5.33c0.33-0.58,0.65-1.4,1.2-1.79c-0.57,2.15-1.93,4.44-4,6.95c-0.7-0.95-2.16,0.6-3.8,2.48
						c-1.63,1.89-3.42,4.12-4.86,4.49c-2.91,5.06-7.36,8.8-11.28,14.29c2.86-0.84-1.13,1.61,0.58,2.37
						c-0.84,1.32-1.22,1.78-1.4,1.82l-3.68,3.19c-1.1,0.6,0.55-1.44,0.13-1.57c-2.14,2.69-1.48,0.71-3.21,2.26
						c0.8,0,0.07,1.52-1.27,2.97l2.29-1.75c-1,2.24-1.91,2.86-2.83,3.48c-0.92,0.61-1.86,1.3-2.81,3.44l0.39-1.53
						c-0.56,1.08-1.82,2.85-3.02,4.42c-0.6,0.79-1.19,1.54-1.69,2.22c-0.5,0.66-0.89,1.29-1.1,1.86c-0.42,0.02-1.04-0.16-0.42-0.74
						c-0.97,0.58-1.91,1.13-2.99,1.55c-1.1,0.43-2.43,0.76-3.85,0.98c-1.41,0.22-2.95,0.34-4.36,0.39c-1.42,0.05-2.73,0-3.88-0.22
						l0.44-0.45c-1.1,0.14-1.91,0.86-3.29,0.41c0.07-0.19,0.44-0.45-0.07-0.47c-0.58,0.16-2.92,0.8-4.38,0.55l1.24-0.51
						c-5.76-0.55-8.83,1.28-13.65,1.62c0-1.32-4.53-1.72-6.79-1.92l0.08-0.19c-6.7-0.12-11.38,1.17-17.58,1.72
						c-1.93-0.7-5.19-0.83-8.75-0.88c-1.78-0.02-3.63-0.05-5.42-0.07c-1.79-0.05-3.56-0.12-5-0.34c0.9,0.25-0.16,1.04-1.2,1.13
						c-1.33-0.28-3.75,0.59-3.35-0.6c0.14,0.03,0.29,0.06,0.44,0.09c-0.39-0.65-1.17-1-2.01-1.32c-0.84-0.3-1.77-0.62-2.58-1.07
						c-0.34,0.42-0.68,0.84-1.04,1.25c-0.87-1.14-1.93-2.21-3.12-3.34c-1.19-1.12-2.49-2.33-3.74-3.56
						c-2.49-2.48-4.84-4.93-5.12-6.84c-1.25-0.87-2.42-2.27-3.66-3.13l0.7-0.49c-2.46-3.26-3.69-4.89-7.09-8.61l1.13,0.4
						c-1.79-2.21-4.18-1.17-5.91-3.15l0.46-1.42c-3.21-3.78-5.59-8.34-9.62-11.35c0.19-0.06,0.57-0.18,1.12,0.4
						c-1.48-1.81-5.16-7.46-5.94-5.7c0.83-0.77-3.21-3.99-5.32-5.72l0.91-0.22c-2.27-1.04-2.54-0.91-4.8-3.14
						c-0.4-0.64,0.09-0.93,0.57-0.03c-1.27-2.19-1.86-0.98-3.46-3.58l1.13,0.52c-1.6-2-1.69-1.66-3.08-2.34
						c-1.29-1.02-2.98-3.86-2.65-4.64c-0.58,0.03-1.96-0.64-2.77-1.93c0.08-0.34,0.58-0.04,0.82,0.12c-2.36-3.65-4.9-4.22-6.23-6.99
						c0.17-0.23,0.14-0.47,0.04-0.7c2.25,2.59,4,4.71,3.79,4.55c0.59-0.5-1.12-2.69,1.12-1.71c-1.89-1.31-5.34-3.34-6.87-5.59
						c-0.03-0.15-0.06-0.29-0.04-0.44l0.25,0.15c-0.36-0.52-0.78-0.89-1.23-1.19c-0.49-0.72-0.79-1.19-1.33-1.82
						c0.25-0.67-1.9-2.59-2.84-3.61c-0.54,0.66-1.68-0.75-1.02,0.96c-0.11-0.2,0.25,0.12,0.91,0.77c0.16,0.13,0.34,0.31,0.47,0.37
						c-0.03-0.01-0.07-0.01-0.12-0.02c0.63,0.65,1.46,1.51,2.37,2.49c-1.05-0.52-2.09-1.11-2.78-2.55
						c-0.88-0.15-1.82-0.33-2.31-0.47c-0.43-2.18-2.52-5.25-2.37-6.12c-3.3-2.72-7.39-6.77-10.38-7.4
						c-1.01-0.67-0.68-1.27-0.83-1.75c0.6,0.35,1.18,0.93,1.61,1.02c-2.03-1.33-5.16-4.71-6.32-4.34c-1.72-2.46,1.87,0.48-1.08-2.3
						l0.62,0.16c-2.09-3.46-4.62-5.36-7.03-7.68c-1.2-1.16-2.37-2.41-3.27-3.97c-0.91-1.55-1.61-3.41-1.74-5.61
						c0.06,0.6,0.1,0.9-0.03,1.08c-1.2-4.75-2.16-9.68-1.4-14.55c0.37-2.41,1.24-4.74,2.58-6.74c1.34-2,3.12-3.69,5.19-4.82
						c2.28-1.35,2.16-2.01,3.35-3.33l0.95,0.52c0.33-0.38,0.67-0.74,1.03-1.09c0.36-0.36,0.72-0.72,1.11-1.06
						c1.77-1.13,3.7-1.15,5.63-1.1c1.95,0.06,3.94,0.14,6.47-0.75l-0.71-0.56c0.94-0.02,2.43-0.17,3.66-0.2
						c1.23-0.02,2.17,0.06,2.01,0.41c0.19-0.1,0.64-0.62,1.37-0.27l0.04,0.48c1.56-0.2,3.14-0.35,4.73-0.47
						c3.59,0.73-0.76,1.78,4.48,2.5c1.97,0.07,5.8-0.59,5.1-1.01c-0.8-0.14-2-0.58-1.99-1.06l1.84,0.01
						c0.52-1.34,2.13-2.56-2.21-4.15l-3.25,0.44l-0.94-0.79l2.67,0.29c-1.42-0.83-2.46-0.38-3.58-0.12
						c-0.21-0.39-0.64-0.68-1.26-0.88c-1.1,0.34-2.19,0.68-3.27,1.06c-0.35-0.57,1.51-0.98-0.61-1.43c-1.53,0.54,1.35,1.3-1.13,1.57
						c-1.51-0.7-1.06-1.21-2.9-0.7c-0.26-0.36,0.14-0.59,0.87-0.73c-1.65,0.38-4.38,0.21-5.19,1.02c-0.84-0.34-2.24-0.17-3.42-0.03
						c-1.17,0.14-2.13,0.22-2.16-0.45c-0.24,0.21-0.94,0.61-1.75,1.01c-0.8,0.43-1.72,0.85-2.45,1.11c1.15-1.14-0.27-0.82-1.94-0.27
						c-1.67,0.52-3.53,1.33-3.53,0.41c-0.72,1.09-2.38,2.11-4.17,3.36c-1.79,1.24-3.68,2.8-4.74,4.49c0.07-0.23,0.21-0.7,0.51-0.89
						c-0.41,0.37-0.77,0.65-1.09,0.89c-0.31,0.25-0.58,0.46-0.85,0.64c-0.54,0.36-1.01,0.66-1.55,1.18
						c0.37,0.47,0.09,1.44-0.24,2.56c-0.33,1.11-0.72,2.38-0.72,3.35c-1.04,0.98-1.22,0.51-1.27-0.22
						c-0.06-0.73,0.02-1.71-0.65-1.54c0.47,0.15,0.15,1.36-0.03,2.47c-0.15,1.12-0.27,2.1,0.26,1.78c-1.18,1.81-0.79,1.62-1.93,2.5
						c0.69,0.31,0.68,0.79,0.56,1.44c-0.07,0.64-0.24,1.46,0.17,2.32c-0.75,2.92-1.45,0.78-0.83,4.02
						c-0.14,0.79-0.42,0.49-0.66-0.04C424.45,456.06,424.29,455.31,424.29,455.31z M467.65,510.3c-0.01,0.01-0.01,0.01-0.01,0.01
						c-0.41-0.42-0.75-0.79-0.97-1.02C466.87,509.5,467.15,509.79,467.65,510.3z M471.45,514.6c-0.43-0.55-1-1.21-1.61-1.9
						c0.08-0.34,0.46-0.38,0.82,0.07C470.31,512.66,471.07,513.8,471.45,514.6z M467.67,501.59c0.71,0.6,0.8,0.94,0.76,1.15
						c-0.31-0.31-0.67-0.67-1.17-1.12c-0.04,0-0.11-0.01-0.15-0.01C467.29,501.57,467.46,501.54,467.67,501.59z"/>
					<path class="st2" d="M465.73,501.13c-0.1-0.08-0.18-0.11-0.3-0.23c0.07,0.19,0.15,0.36,0.24,0.53
						c0.14,0.02,0.29,0.04,0.42,0.06C465.96,501.36,465.84,501.24,465.73,501.13z"/>
					<path class="st2" d="M588.97,435.08l0.12,0.02c-0.1-0.03-0.19-0.07-0.25-0.12C588.92,435.02,588.92,435.05,588.97,435.08z"/>
					<polygon class="st2" points="521.52,576.5 521.68,576.35 521.21,576.09 					"/>
					<path class="st2" d="M557.28,431.51c-0.06-0.08-0.18-0.16-0.41-0.23C556.88,431.34,557.06,431.42,557.28,431.51z"/>
					<path class="st2" d="M543.57,430.95l-1.93-0.36C542.48,430.79,543.09,430.89,543.57,430.95z"/>
					<path class="st2" d="M533.05,430.21c-0.14,0.14-0.18,0.25-0.22,0.36l0.02,0.01L533.05,430.21z"/>
					<path class="st2" d="M700.77,431.14c0.15,0,0.29-0.01,0.42-0.03C702.19,430.99,701.51,431.02,700.77,431.14z"/>
					<path class="st2" d="M650.77,433.19c0.53-0.15,1.05-0.3,1.61-0.39C651.49,432.73,650.8,432.71,650.77,433.19z"/>
					<path class="st2" d="M729.99,472.57c0-0.01-0.01,0-0.01-0.01c-0.06,0.12-0.11,0.22-0.17,0.34L729.99,472.57z"/>
					<path class="st2" d="M654.69,432.81c-0.89-0.17-1.63-0.13-2.32-0.02C653.1,432.85,653.96,432.94,654.69,432.81z"/>
					<path class="st2" d="M487.4,428.15l-0.51-0.06c0.01,0.06-0.03,0.1-0.07,0.13L487.4,428.15z"/>
					<path class="st2" d="M486.83,428.23l-0.57,0.07C486.52,428.31,486.75,428.32,486.83,428.23z"/>
					<path class="st2" d="M485.07,428.46l1.2-0.16C485.85,428.28,485.35,428.23,485.07,428.46z"/>
					<path class="st2" d="M501.33,429.11l0.17-0.3C501.41,428.87,501.35,428.97,501.33,429.11z"/>
					<path class="st2" d="M505.57,429.18c-1.01-0.11-2.51-0.74-3.93-0.61l-0.14,0.24C502.18,428.38,504.59,429.66,505.57,429.18z"/>
					<path class="st2" d="M523.14,433.59l-3.55-0.36c0.61,0.35,1.41,0.81-0.21,0.84C523.83,435.18,518.48,433.3,523.14,433.59z"/>
					<path class="st2" d="M534.15,434.42c-1.92,0.09,0.01,0.47-0.1,0.65C535.27,434.81,535.56,434.75,534.15,434.42z"/>
					<path class="st2" d="M613.84,436.12l-0.2,0.77C615.12,436.79,613.66,436.59,613.84,436.12z"/>
					<polygon class="st2" points="629.11,432.3 627.68,431.81 627,432.51 					"/>
					<polygon class="st2" points="638.07,437.83 637.43,437.93 639.89,437.67 					"/>
					<path class="st2" d="M714.91,481.19l0.99,0.31C716.41,480.66,715.75,479.82,714.91,481.19z"/>
					<path class="st2" d="M675.92,523.84c-0.77,0.16-2.08,1.2-2.38,2.26C674.44,525.16,675.58,524.42,675.92,523.84z"/>
					<path class="st2" d="M537.2,582.14c0.33,0.11,0.65,0.22,0.97,0.3c-0.54-0.26-1.09-0.56-1.63-0.89
						C536.76,581.76,536.98,581.96,537.2,582.14z"/>
				</g>
			</g>
		</g>
	</g>
</g>
</svg>
