<svg xmlns="http://www.w3.org/2000/svg" xmlns:xlink="http://www.w3.org/1999/xlink" viewBox="0 0 313.07 375.37"><defs><style>.cls-1{fill:none;}.cls-2{clip-path:url(#clip-path);}</style><clipPath id="clip-path"><rect class="cls-1" width="313.07" height="375.37"/></clipPath></defs><g id="Layer_2" data-name="Layer 2"><g id="Layer_1-2" data-name="Layer 1"><g id="Artwork_2" data-name="Artwork 2"><g class="cls-2"><g class="cls-2"><path d="M214,157.47c8.08.18,16.12-.68,24.18-1,7.67-.32,15.69-.26,23.05,2.16,10.73,3.54,22.29,14,20.89,26.3-1.32,11.56-13,16.74-23,18.7a106.18,106.18,0,0,1-17.71,1.57q-12.58.34-25.18.48c-16.79.19-33.58.13-50.37-.07s-33.59-.56-50.38-1Q102.73,204.31,90,204c-7.63-.2-15.41-.09-23-1.4C60.33,201.4,53.71,199,48.89,194c-4-4.21-7-10.28-5.76-16.22,2.22-11.19,15-14.48,24.77-15.44,6.92-.68,13.92-.5,20.86-.58l25.11-.31,12.43-.15a1.51,1.51,0,0,0,.4-2.95c-13.84-3.7-28.13-1.41-42.24-1.71-11.82-.25-25.22-2.47-33.23-12.06-6.56-7.84-8.72-20.17-.71-27.81,3.8-3.62,8.95-5.35,14-6.29,5.67-1.06,11.46-1.1,17.21-1.18l51.84-.7c2,0,1.89-2.82,0-3L107.5,103c-8.46-.82-17-1.43-25.41-2.48-3.37-.42-6.9-1.14-9.7-3.18a11.19,11.19,0,0,1-4.22-6.76A17,17,0,0,1,73.34,75c5-4.69,12-6.64,18.73-7.36,8.21-.89,16.5-.09,24.7-1A47.77,47.77,0,0,0,150.67,47a46.81,46.81,0,0,0,6-41.21,49.66,49.66,0,0,0-2-5c-.8-1.76-3.39-.23-2.59,1.51a44,44,0,0,1-3.27,42.14,44.53,44.53,0,0,1-14.44,13.51,46,46,0,0,1-20.5,6c-14.41.94-31.73-1.82-43.1,9.36A20.08,20.08,0,0,0,65,89.45a15.25,15.25,0,0,0,3.19,8,16,16,0,0,0,8.22,5.06,61.83,61.83,0,0,0,11,1.6l13.17,1.27,26.58,2.57,6.46.62v-3l-48.35.65c-6.35.09-12.72,0-19,.93-5.42.77-11,2.26-15.47,5.53A20,20,0,0,0,42.5,126a25.64,25.64,0,0,0,3.24,15.74C52,153.2,64.65,157.86,77,159.15c16.27,1.7,32.91-2.23,48.92,2l.4-2.94c-17.26.21-34.55.19-51.81.65-10.56.27-23.95,1.7-30.9,10.74C35.25,180.5,42.43,195,53.14,201c6.69,3.76,14.46,4.95,22,5.43,8.34.53,16.73.55,25.08.77,17.62.46,35.24.89,52.87,1.18s35.24.43,52.87.33q13.22-.08,26.43-.34c7.12-.15,14.31-.13,21.4-1,10.76-1.27,23.5-4.57,29-14.94a20.8,20.8,0,0,0,.88-17.48,32.83,32.83,0,0,0-12.15-14.58c-13.21-9.11-29.94-7.2-45.07-6.3-4.15.25-8.3.42-12.45.33-1.93,0-1.93,3,0,3"/><path d="M233.18,209.21l29.92-.44A112.8,112.8,0,0,1,284.36,210c6.46,1.14,13.1,3.24,18.1,7.67,5.74,5.09,8.15,12.44,7.55,20-.67,8.46-4.85,16.12-10.05,22.65-5.54,7-12.1,13.08-18.27,19.47Q262.15,300,243.93,321.51q-18.08,21.33-34.77,43.78c-1.39,1.88-2.78,3.75-4.15,5.64-1.14,1.56,1.46,3.05,2.59,1.51q17-23.29,35.59-45.42t38.51-42.95c6.35-6.62,13.11-12.94,19-20,5.52-6.58,10.22-14.07,11.8-22.64,1.47-8,.17-16.29-5-22.78-4.2-5.31-10.44-8.52-16.86-10.33a82.51,82.51,0,0,0-21.4-2.59c-9.54-.13-19.09.21-28.63.35l-7.48.11c-1.93,0-1.93,3,0,3"/><path d="M105.62,372.05c5.42,2.94,11.47,3.57,17.55,3.25,6.5-.35,13-1.19,19.49-1.6a372.61,372.61,0,0,1,40.52-.38q11.63.53,23.2,1.77c1.91.21,1.9-2.79,0-3a376.49,376.49,0,0,0-40-2.15c-13.23,0-26.36.9-39.52,2.08-6.72.61-13.62.75-19.73-2.56-1.69-.93-3.21,1.66-1.51,2.59"/><path d="M79.93,203.68q-15.54-.23-31.09-.46a107.05,107.05,0,0,0-21.6,1.49c-6.73,1.28-13.45,3.74-18.63,8.38A26.76,26.76,0,0,0,0,233.61c.3,18.55,14.76,31.81,26.66,44.25q20.08,21,38.75,43.26t35.86,45.78c1.42,2,2.84,3.9,4.24,5.86,1.12,1.55,3.72.06,2.59-1.51q-16.51-23-34.47-44.89T36.31,283.71c-6.21-6.66-12.73-13.06-18.8-19.85C11.81,257.5,6.57,250.39,4.26,242,2.11,234.27,2.54,225.71,7.32,219c3.81-5.37,9.86-8.53,16.06-10.29,6.76-1.91,13.84-2.4,20.83-2.48,9.41-.1,18.83.22,28.24.36l7.48.11c1.93,0,1.93-3,0-3"/><path d="M78.2,223.68l-1.29,64.87q-.19,9.24-.37,18.47c0,1.93,3,1.93,3,0l1.29-64.88q.19-9.22.37-18.46c0-1.93-3-1.93-3,0"/><path d="M112.88,247.15v97.43a1.5,1.5,0,0,0,3,0V247.15a1.5,1.5,0,0,0-3,0"/><path d="M152.62,223.63l-1.29,64.88q-.2,9.23-.37,18.46c0,1.93,3,1.93,3,0l1.29-64.87q.19-9.24.37-18.47c0-1.93-3-1.93-3,0"/><path d="M190.79,247.58V345a1.5,1.5,0,0,0,3,0V247.58a1.5,1.5,0,0,0-3,0"/><path d="M226.62,223.63l-1.29,64.88q-.2,9.23-.37,18.46c0,1.93,3,1.93,3,0l1.29-64.87q.19-9.24.37-18.47c0-1.93-3-1.93-3,0"/></g></g></g></g></g></svg>